<svg width="22" height="90" viewBox="0 0 22 90" fill="none" xmlns="http://www.w3.org/2000/svg">
<path d="M16.1263 0.685719L16.1262 0.686328L16.1265 0.685922L16.1263 0.685719ZM16.1262 0.686328L11.8113 5.81108L11.5067 19.4463C18.5239 13.5381 13.4506 9.71037 16.1262 0.686328ZM10.0165 6.04201L5.50684 0.685922C9.13589 10.161 3.72626 15.1803 9.71985 19.3255L10.0165 6.04201ZM21.4118 28.279C15.4935 24.9984 12.3276 30.0669 14.1816 39.9057C20.2233 38.8054 16.3709 32.4046 21.4118 28.2789L21.4118 28.279ZM11.5215 22.0497L9.73291 22.0649C9.75646 28.1595 10.0996 34.455 10.791 40.5644L8.92745 54.3382L9.81791 66.1452C10.3573 65.8756 10.8784 65.7553 11.3968 65.7971C11.4631 65.8023 11.5284 65.8119 11.5936 65.8223L11.0131 58.1251L11.0757 58.1717C11.7198 56.2253 12.6884 54.8549 14.017 53.8666L13.2221 51.4645C12.2928 52.1557 11.4671 53.0541 10.7769 54.1607L12.6085 40.6209L12.5801 40.3734C11.887 34.3416 11.545 28.0908 11.5217 22.0493L11.5215 22.0497ZM7.06898 44.5956C5.9539 42.8913 3.86635 42.6078 0.884879 44.3736C5.76536 47.0316 1.7612 52.8233 7.4177 53.3446C8.32664 49.426 8.18411 46.3004 7.06898 44.5956ZM17.7261 69.3054L14.7793 70.5302L10.9727 82.5029L7.04319 70.1449L4.27618 68.7142L10.9027 89.73L17.7261 69.3051L17.7261 69.3054ZM13.0502 69.7358C12.378 68.9242 11.8387 68.5176 11.3009 68.4746C10.7387 68.4293 9.9873 68.7999 8.92874 69.8432L10.9726 76.2707L13.0502 69.7358Z" fill="#FFCE51"/>
</svg>
