<svg width="59" height="59" viewBox="0 0 59 59" fill="none" xmlns="http://www.w3.org/2000/svg">
<path d="M26.384 37.2L14.16 29.328L26.288 21.712C26.864 21.36 27.344 21.2 27.728 21.2C29.072 21.2 29.296 22.896 27.408 23.76L15.184 29.328L27.568 35.184C29.168 35.952 28.656 37.552 27.44 37.552C27.12 37.552 26.768 37.456 26.384 37.2ZM29.0975 29.552V27.824H37.0975V29.552H29.0975ZM37.41 29.552V27.824H45.41V29.552H37.41Z" fill="#FFCE51"/>
<path d="M26.384 37.2L26.6614 36.7839L26.6547 36.7796L26.384 37.2ZM14.16 29.328L13.8941 28.9046L13.2283 29.3227L13.8893 29.7484L14.16 29.328ZM26.288 21.712L26.0273 21.2853L26.0221 21.2886L26.288 21.712ZM27.408 23.76L27.6153 24.215L27.6161 24.2147L27.408 23.76ZM15.184 29.328L14.9767 28.873L13.9964 29.3195L14.9703 29.78L15.184 29.328ZM27.568 35.184L27.7844 34.7332L27.7817 34.732L27.568 35.184ZM26.6547 36.7796L14.4307 28.9076L13.8893 29.7484L26.1133 37.6204L26.6547 36.7796ZM14.4259 29.7514L26.5539 22.1354L26.0221 21.2886L13.8941 28.9046L14.4259 29.7514ZM26.5487 22.1386C27.0872 21.8096 27.4744 21.7 27.728 21.7V20.7C27.2136 20.7 26.6408 20.9104 26.0273 21.2854L26.5487 22.1386ZM27.728 21.7C27.9576 21.7 28.0925 21.7707 28.165 21.84C28.2366 21.9084 28.2832 22.0086 28.2801 22.1447C28.2739 22.4192 28.0393 22.9213 27.1999 23.3053L27.6161 24.2147C28.6647 23.7347 29.2621 22.9568 29.2799 22.1673C29.2888 21.7714 29.1454 21.3936 28.856 21.117C28.5675 20.8413 28.1704 20.7 27.728 20.7V21.7ZM27.2007 23.305L14.9767 28.873L15.3913 29.783L27.6153 24.215L27.2007 23.305ZM14.9703 29.78L27.3543 35.636L27.7817 34.732L15.3977 28.876L14.9703 29.78ZM27.3516 35.6348C28.0051 35.9484 28.1025 36.3522 28.0664 36.5764C28.0268 36.8218 27.8111 37.052 27.44 37.052V38.052C28.2849 38.052 28.9332 37.4822 29.0536 36.7356C29.1775 35.9678 28.7309 35.1876 27.7844 34.7332L27.3516 35.6348ZM27.44 37.052C27.2283 37.052 26.9715 36.9908 26.6614 36.784L26.1067 37.616C26.5645 37.9212 27.0117 38.052 27.44 38.052V37.052ZM29.0975 29.552H28.5975V30.052H29.0975V29.552ZM29.0975 27.824V27.324H28.5975V27.824H29.0975ZM37.0975 27.824H37.5975V27.324H37.0975V27.824ZM37.0975 29.552V30.052H37.5975V29.552H37.0975ZM29.5975 29.552V27.824H28.5975V29.552H29.5975ZM29.0975 28.324H37.0975V27.324H29.0975V28.324ZM36.5975 27.824V29.552H37.5975V27.824H36.5975ZM37.0975 29.052H29.0975V30.052H37.0975V29.052ZM37.41 29.552H36.91V30.052H37.41V29.552ZM37.41 27.824V27.324H36.91V27.824H37.41ZM45.41 27.824H45.91V27.324H45.41V27.824ZM45.41 29.552V30.052H45.91V29.552H45.41ZM37.91 29.552V27.824H36.91V29.552H37.91ZM37.41 28.324H45.41V27.324H37.41V28.324ZM44.91 27.824V29.552H45.91V27.824H44.91ZM45.41 29.052H37.41V30.052H45.41V29.052Z" fill="#FFCE51"/>
<circle cx="29.5" cy="29.5" r="26" stroke="#FFCE51"/>
<circle cx="29.5" cy="29.5" r="29" stroke="#FFCE51"/>
</svg>
