<svg width="59" height="59" viewBox="0 0 59 59" fill="none" xmlns="http://www.w3.org/2000/svg">
<path d="M24.856 21.84L23.16 19.76C23.992 16.656 26.648 15.216 29.24 15.216C32.248 15.216 35.192 17.136 35.192 20.688C35.192 25.968 29.464 28.784 28.76 38.032C28.6 28.976 32.952 26.096 32.952 20.688C32.952 17.456 31.128 16.016 29.24 16.016C26.936 16.016 24.504 18.096 24.856 21.84ZM27.352 40.528C27.352 39.76 27.992 39.12 28.792 39.12C29.56 39.12 30.2 39.76 30.2 40.528C30.2 41.328 29.56 41.968 28.792 41.968C27.992 41.968 27.352 41.328 27.352 40.528Z" fill="#FFCE51"/>
<path d="M24.856 21.84L24.4685 22.156L25.5077 23.4305L25.3538 21.7932L24.856 21.84ZM23.16 19.76L22.677 19.6305L22.6108 19.8777L22.7725 20.076L23.16 19.76ZM28.76 38.032L28.2601 38.0408L29.2586 38.07L28.76 38.032ZM25.2435 21.524L23.5475 19.444L22.7725 20.076L24.4685 22.156L25.2435 21.524ZM23.643 19.8894C24.4051 17.0462 26.8274 15.716 29.24 15.716V14.716C26.4686 14.716 23.5789 16.2658 22.677 19.6305L23.643 19.8894ZM29.24 15.716C30.6431 15.716 32.0137 16.1647 33.0245 17.0046C34.025 17.8359 34.692 19.0643 34.692 20.688H35.692C35.692 18.7597 34.887 17.2521 33.6635 16.2354C32.4503 15.2273 30.8449 14.716 29.24 14.716V15.716ZM34.692 20.688C34.692 23.155 33.3655 25.0379 31.8119 27.6138C30.275 30.1617 28.6221 33.2568 28.2614 37.994L29.2586 38.07C29.6019 33.5592 31.165 30.6223 32.6681 28.1302C34.1545 25.6661 35.692 23.501 35.692 20.688H34.692ZM29.2599 38.0232C29.1816 33.5905 30.2037 30.6789 31.2566 28.1866C32.3039 25.7077 33.452 23.5194 33.452 20.688H32.452C32.452 23.2646 31.4241 25.2203 30.3354 27.7974C29.2523 30.3612 28.1784 33.4175 28.2601 38.0408L29.2599 38.0232ZM33.452 20.688C33.452 18.9781 32.9681 17.6804 32.1746 16.8043C31.3803 15.9274 30.3136 15.516 29.24 15.516V16.516C30.0544 16.516 30.8437 16.8246 31.4334 17.4757C32.0239 18.1276 32.452 19.1659 32.452 20.688H33.452ZM29.24 15.516C26.6151 15.516 23.9811 17.8763 24.3582 21.8868L25.3538 21.7932C25.0269 18.3157 27.2569 16.516 29.24 16.516V15.516ZM27.852 40.528C27.852 40.0434 28.2608 39.62 28.792 39.62V38.62C27.7232 38.62 26.852 39.4766 26.852 40.528H27.852ZM28.792 39.62C29.2839 39.62 29.7 40.0361 29.7 40.528H30.7C30.7 39.4839 29.8361 38.62 28.792 38.62V39.62ZM29.7 40.528C29.7 41.0592 29.2766 41.468 28.792 41.468V42.468C29.8434 42.468 30.7 41.5968 30.7 40.528H29.7ZM28.792 41.468C28.2681 41.468 27.852 41.0519 27.852 40.528H26.852C26.852 41.6041 27.7159 42.468 28.792 42.468V41.468Z" fill="#FFCE51"/>
<circle cx="29.5" cy="29.5" r="26" stroke="#FFCE51"/>
<circle cx="29.5" cy="29.5" r="29" stroke="#FFCE51"/>
</svg>
